<svg width="33" height="36" viewBox="0 0 33 36" fill="none" xmlns="http://www.w3.org/2000/svg">
<path opacity="0.5" d="M17.0839 0.943848H10.5617C9.06341 0.943848 7.57064 2.17487 7.23121 3.66687L5.71289 10.2809C5.66727 10.4789 5.81143 10.6841 6.03407 10.6841L15.0181 10.6859C15.1732 10.6859 15.3064 10.5833 15.3393 10.4303L17.4215 1.36139C17.4634 1.17242 17.301 0.943848 17.0839 0.943848ZM13.633 16.0635H4.64897C4.49385 16.0635 4.36063 16.1661 4.32779 16.3173L0.0082408 35.1066C-0.013658 35.2074 0.0082408 35.3028 0.0721124 35.3856C0.135984 35.4666 0.227229 35.5098 0.333074 35.5098H6.37533C8.11994 35.5098 9.91929 34.088 10.3116 32.3548L13.9578 16.4667C13.9797 16.3677 13.9578 16.2687 13.8939 16.1859C13.8282 16.1031 13.7388 16.0635 13.633 16.0635ZM29.0133 16.0599L20.0347 16.0473C19.8796 16.0473 19.7427 16.1517 19.7099 16.3047L17.5967 25.3844C17.5729 25.4852 17.593 25.5842 17.6605 25.6652C17.7244 25.7462 17.8156 25.7912 17.9215 25.7912L24.3579 25.7822C25.8562 25.7822 27.4438 24.5871 27.7906 23.1023L29.3363 16.4667C29.3582 16.3641 29.3399 16.2669 29.2724 16.1859C29.2067 16.1031 29.1154 16.0599 29.0133 16.0599ZM30.2432 0.943848H23.5276C23.3725 0.943848 23.2393 1.04643 23.2064 1.19941L21.064 10.2809C21.0421 10.3799 21.064 10.4789 21.1278 10.5599C21.1917 10.6409 21.283 10.6859 21.3888 10.6859H30.4166C30.5717 10.6859 30.7086 10.5815 30.7414 10.4303L32.3309 3.65427C32.685 2.16228 31.7451 0.943848 30.2432 0.943848Z" fill="white"/>
</svg>
