<svg width="176" height="46" viewBox="0 0 176 46" fill="none" xmlns="http://www.w3.org/2000/svg">
<path d="M55.7242 0.251533L62.4592 16.4153L69.2188 0.251533H71.276V18.5663H69.7333V10.5913L69.8585 2.41508L63.0614 18.5663H61.8696L55.0972 2.47796L55.2225 10.5409V18.5663H53.6797V0.251533H55.7242ZM85.9879 13.4341H77.6975L75.8158 18.5663H74.198L81.1084 0.251533H82.5761L89.4866 18.5663H87.8816L85.9879 13.4341ZM78.1737 12.1133H85.4981L81.8359 2.13835L78.1737 12.1133ZM93.7382 17.2581H102.756V18.5663H92.1836V0.251533H93.7382V17.2581ZM107.284 17.2581H116.301V18.5663H105.728V0.251533H107.284V17.2581ZM128.203 1.57232H121.945V18.5663H120.402V1.57232H114.157V0.251533H128.203V1.57232ZM141.247 9.78626H132.706V17.2581H142.526V18.5663H131.164V0.251533H142.463V1.57232H132.706V8.47804H141.247V9.78626ZM158.718 12.8555C158.509 14.7842 157.818 16.2601 156.648 17.2832C155.486 18.3063 153.936 18.8178 151.996 18.8178C150.64 18.8178 149.441 18.4781 148.395 17.7988C147.359 17.1197 146.555 16.1595 145.988 14.9184C145.419 13.6689 145.13 12.2433 145.122 10.6416V8.26418C145.122 6.63737 145.406 5.19498 145.975 3.93716C146.544 2.67925 147.359 1.71065 148.42 1.03141C149.492 0.343778 150.72 0 152.108 0C154.065 0 155.608 0.532505 156.736 1.59744C157.873 2.65406 158.535 4.11742 158.718 5.98743H157.162C156.778 2.8763 155.093 1.3207 152.108 1.3207C150.453 1.3207 149.132 1.94129 148.145 3.18241C147.167 4.42351 146.677 6.13839 146.677 8.32715V10.5661C146.677 12.6794 147.154 14.3649 148.107 15.6229C149.069 16.8807 150.365 17.5096 151.996 17.5096C153.61 17.5096 154.826 17.1238 155.645 16.3524C156.464 15.5725 156.971 14.4068 157.162 12.8555H158.718ZM176 18.5663H174.446V9.78626H164.011V18.5663H162.468V0.251533H164.011V8.47804H174.446V0.251533H176V18.5663Z" fill="white"/>
<path d="M55.2353 43.8192H64.2524V45.1272H53.6797V26.8127H55.2353V43.8192ZM77.3337 39.995H69.0432L67.1623 45.1272H65.5447L72.455 26.8127H73.9219L80.8331 45.1272H79.2274L77.3337 39.995ZM69.5203 38.6742H76.8448L73.1826 28.6992L69.5203 38.6742ZM83.5293 45.1272V26.8127H88.9226C90.8785 26.8127 92.363 27.2192 93.3745 28.0328C94.386 28.8377 94.8926 30.029 94.8926 31.605C94.8926 32.553 94.6333 33.3788 94.1148 34.0828C93.6043 34.7788 92.9022 35.278 92.0073 35.5796C93.0699 35.8148 93.9225 36.3388 94.5663 37.1525C95.218 37.9661 95.5442 38.9046 95.5442 39.9702C95.5442 41.5887 95.0218 42.8544 93.9768 43.7688C92.9397 44.6745 91.4935 45.1272 89.6373 45.1272H83.5293ZM85.0722 36.3221V43.8192H89.6995C91.0213 43.8192 92.0663 43.4841 92.8353 42.8129C93.6131 42.1336 94.0015 41.1942 94.0015 39.995C94.0015 38.863 93.6298 37.9702 92.8855 37.3157C92.1501 36.6533 91.1298 36.3221 89.8255 36.3221H85.0722ZM85.0722 35.0268H89.2863C90.5738 35.0012 91.5685 34.6996 92.2714 34.1211C92.982 33.5339 93.337 32.6827 93.337 31.5674C93.337 30.3929 92.9692 29.5297 92.233 28.9761C91.5055 28.4145 90.4024 28.1336 88.9226 28.1336H85.0722V35.0268Z" fill="white"/>
<path d="M3.86252 40.7623H23.1753V44.6361H0V5.35181H3.86252V40.7623Z" fill="white"/>
<path d="M36.6934 38.8256H32.8309V4.01816H19.3125V0.0866699H36.6934V38.8256Z" fill="white"/>
</svg>
